<svg xmlns="http://www.w3.org/2000/svg" width="609" height="362" fill="none" viewBox="0 0 609 362">
    <g clip-path="url(#clip0)">
        <path fill="#A6DAE1" fill-opacity=".51" d="M86.572 315.675v-33.472l76.646-109.633h46.327v107.207h19.889v35.898h-19.889v31.531h-41.476v-31.531H86.572zm84.407-97.505l-40.748 61.607h40.748V218.17z"/>
        <path fill="#695353" d="M86.572 315.675h-1v1h1v-1zm0-33.472l-.82-.573-.18.258v.315h1zm76.646-109.633v-1h-.521l-.299.427.82.573zm46.327 0h1v-1h-1v1zm0 107.207h-1v1h1v-1zm19.889 0h1v-1h-1v1zm0 35.898v1h1v-1h-1zm-19.889 0v-1h-1v1h1zm0 31.531v1h1v-1h-1zm-41.476 0h-1v1h1v-1zm0-31.531h1v-1h-1v1zm2.91-97.505h1v-3.325l-1.834 2.773.834.552zm-40.748 61.607l-.834-.551-1.026 1.551h1.86v-1zm40.748 0v1h1v-1h-1zm-83.407 35.898v-33.472h-2v33.472h2zm-.18-32.899l76.645-109.633-1.639-1.146L85.752 281.63l1.64 1.146zm75.826-109.206h46.327v-2h-46.327v2zm45.327-1v107.207h2V172.57h-2zm1 108.207h19.889v-2h-19.889v2zm18.889-1v35.898h2v-35.898h-2zm1 34.898h-19.889v2h19.889v-2zm-20.889 1v31.531h2v-31.531h-2zm1 30.531h-41.476v2h41.476v-2zm-40.476 1v-31.531h-2v31.531h2zm-1-32.531H86.572v2h81.497v-2zm2.076-97.057l-40.748 61.608 1.668 1.103 40.748-61.608-1.668-1.103zm-39.914 63.159h40.748v-2h-40.748v2zm41.748-1V218.17h-2v61.607h2z"/>
        <path fill="#73C7E8" d="M256.792 256.25c0-27.812 5.336-49.723 16.008-65.731 10.834-16.008 28.216-24.012 52.148-24.012 23.932 0 41.233 8.004 51.906 24.012 10.834 16.008 16.251 37.919 16.251 65.731 0 28.136-5.417 50.208-16.251 66.216-10.673 16.008-27.974 24.012-51.906 24.012s-41.314-8.004-52.148-24.012c-10.672-16.008-16.008-38.08-16.008-66.216zm95.564 0c0-16.332-1.779-28.863-5.336-37.595-3.557-8.894-10.915-13.34-22.072-13.34s-18.515 4.446-22.072 13.34c-3.557 8.732-5.336 21.263-5.336 37.595 0 10.996.647 20.132 1.94 27.408 1.294 7.115 3.881 12.936 7.762 17.464 4.042 4.366 9.944 6.548 17.706 6.548 7.762 0 13.583-2.182 17.464-6.548 4.042-4.528 6.71-10.349 8.004-17.464 1.293-7.276 1.94-16.412 1.94-27.408z"/>
        <path fill="#695353" d="M272.8 190.519l-.828-.56-.004.005.832.555zm104.054 0l-.832.555.004.005.828-.56zm0 131.947l-.829-.56-.003.005.832.555zm-104.054 0l-.832.555.004.005.828-.56zm74.22-103.811l-.928.371.002.006.926-.377zm-44.144 0l.926.377.003-.006-.929-.371zm-3.396 65.003l-.984.175v.004l.984-.179zm7.762 17.464l-.759.65.012.015.013.014.734-.679zm35.17 0l-.746-.666-.002.001.748.665zm8.004-17.464l.984.179v-.004l-.984-.175zm-92.624-27.408c0-27.699 5.316-49.39 15.84-65.176l-1.664-1.11c-10.821 16.231-16.176 38.36-16.176 66.286h2zm15.836-65.171c10.603-15.666 27.631-23.572 51.32-23.572v-2c-24.174 0-41.911 8.102-52.976 24.452l1.656 1.12zm51.32-23.572c23.69 0 40.633 7.906 51.074 23.567l1.664-1.11c-10.904-16.355-28.565-24.457-52.738-24.457v2zm51.078 23.572c10.682 15.785 16.079 37.475 16.079 65.171h2c0-27.928-5.438-50.06-16.423-66.291l-1.656 1.12zm16.079 65.171c0 28.022-5.398 49.872-16.079 65.656l1.656 1.12c10.986-16.233 16.423-38.527 16.423-66.776h-2zm-16.083 65.661c-10.441 15.661-27.384 23.567-51.074 23.567v2c24.173 0 41.834-8.102 52.738-24.457l-1.664-1.11zm-51.074 23.567c-23.689 0-40.717-7.906-51.32-23.572l-1.656 1.12c11.065 16.35 28.802 24.452 52.976 24.452v-2zm-51.316-23.567c-10.523-15.784-15.84-37.636-15.84-65.661h-2c0 28.247 5.354 50.539 16.176 66.771l1.664-1.11zm79.724-65.661c0-16.38-1.78-29.064-5.41-37.973l-1.852.755c3.485 8.555 5.262 20.935 5.262 37.218h2zm-5.407-37.967c-1.85-4.624-4.712-8.141-8.598-10.489-3.874-2.342-8.695-3.479-14.403-3.479v2c5.45 0 9.886 1.086 13.369 3.19 3.471 2.098 6.067 5.252 7.775 9.521l1.857-.743zm-23.001-13.968c-5.708 0-10.528 1.137-14.403 3.479-3.886 2.348-6.748 5.865-8.597 10.489l1.857.743c1.707-4.269 4.303-7.423 7.774-9.521 3.483-2.104 7.92-3.19 13.369-3.19v-2zm-22.998 13.962c-3.63 8.909-5.41 21.593-5.41 37.973h2c0-16.283 1.777-28.663 5.262-37.218l-1.852-.755zm-5.41 37.973c0 11.029.648 20.228 1.956 27.583l1.969-.35c-1.28-7.198-1.925-16.271-1.925-27.233h-2zm1.956 27.587c1.319 7.252 3.968 13.247 7.987 17.935l1.518-1.301c-3.743-4.367-6.268-10.014-7.537-16.992l-1.968.358zm8.012 17.964c4.285 4.628 10.489 6.869 18.44 6.869v-2c-7.572 0-13.172-2.124-16.972-6.228l-1.468 1.359zm18.44 6.869c7.948 0 14.083-2.24 18.211-6.884l-1.495-1.329c-3.634 4.088-9.141 6.213-16.716 6.213v2zm18.21-6.882c4.186-4.69 6.921-10.69 8.242-17.951l-1.968-.358c-1.267 6.969-3.868 12.611-7.766 16.977l1.492 1.332zm8.242-17.955c1.308-7.355 1.956-16.554 1.956-27.583h-2c0 10.962-.645 20.035-1.925 27.233l1.969.35z"/>
        <path fill="#A6DAE1" fill-opacity=".51" d="M423.03 315.675v-33.472l76.646-109.633h46.327v107.207h19.889v35.898h-19.889v31.531h-41.476v-31.531H423.03zm84.407-97.505l-40.748 61.607h40.748V218.17z"/>
        <path fill="#695353" d="M423.03 315.675h-1v1h1v-1zm0-33.472l-.82-.573-.18.258v.315h1zm76.646-109.633v-1h-.521l-.299.427.82.573zm46.327 0h1v-1h-1v1zm0 107.207h-1v1h1v-1zm19.889 0h1v-1h-1v1zm0 35.898v1h1v-1h-1zm-19.889 0v-1h-1v1h1zm0 31.531v1h1v-1h-1zm-41.476 0h-1v1h1v-1zm0-31.531h1v-1h-1v1zm2.91-97.505h1v-3.325l-1.834 2.773.834.552zm-40.748 61.607l-.834-.551-1.026 1.551h1.86v-1zm40.748 0v1h1v-1h-1zm-83.407 35.898v-33.472h-2v33.472h2zm-.18-32.899l76.645-109.633-1.639-1.146L422.21 281.63l1.64 1.146zm75.826-109.206h46.327v-2h-46.327v2zm45.327-1v107.207h2V172.57h-2zm1 108.207h19.889v-2h-19.889v2zm18.889-1v35.898h2v-35.898h-2zm1 34.898h-19.889v2h19.889v-2zm-20.889 1v31.531h2v-31.531h-2zm1 30.531h-41.476v2h41.476v-2zm-40.476 1v-31.531h-2v31.531h2zm-1-32.531H423.03v2h81.497v-2zm2.076-97.057l-40.748 61.608 1.668 1.103 40.748-61.608-1.668-1.103zm-39.914 63.159h40.748v-2h-40.748v2zm41.748-1V218.17h-2v61.607h2z"/>
        <circle cx="316.151" cy="238.357" r="4.151" fill="#695353"/>
        <ellipse cx="325.412" cy="260.981" fill="#695353" rx="7" ry="4" transform="rotate(6.57 325.412 260.981)"/>
        <circle cx="338.151" cy="241.659" r="4.151" fill="#695353"/>
        <path stroke="#695353" stroke-width="2" d="M309.684 231.257L318.684 228.257M338.598 230.405L345.296 235.405"/>
        <path fill="#EFEFEF" stroke="#695353" d="M110.908 73.993l-.517 1.075 1.13-.385c6.358-2.164 12.553.951 16.514 6.037 3.969 5.097 5.556 12 2.867 17.2l.444.23-.444-.23c-3.172 6.136-9.377 9.425-16.931 8.781-.598-.052-2.258-.204-4.051-.53-1.818-.331-3.681-.825-4.745-1.52l-.857-.56.086 1.019c.254 3.033-1.195 5.229-3.664 6.68-2.495 1.465-6.02 2.152-9.789 2.071-3.761-.082-7.712-.928-11.031-2.472-3.326-1.547-5.966-3.768-7.197-6.569l-.41-.93-.487.89c-2.629 4.803-7.664 6.169-12.386 4.995-4.734-1.176-9.049-4.886-10.147-10.11-.778-3.706-.255-8.501 1.633-12.027.94-1.757 2.203-3.17 3.781-3.993 1.569-.817 3.492-1.076 5.81-.452l1.386.373-.857-1.154c-2.924-3.936-2.723-8.953-.48-13.397 2.244-4.446 6.498-8.235 11.52-9.642 4.158-1.166 9.058-.948 13.003.555 3.947 1.505 6.836 4.246 7.219 8.075l.128 1.288.77-1.038c2.728-3.673 7.822-5.345 12.88-3.618h0c4.401 1.503 6.498 5.872 4.822 9.358z"/>
        <path fill="#EFEFEF" stroke="#695353" stroke-width=".715" d="M320.001 29.057l-.37.77.808-.276c7.477-2.545 14.737 1.128 19.357 7.06 4.626 5.94 6.505 14.021 3.34 20.143-3.715 7.187-10.986 11.032-19.808 10.28-.695-.06-2.624-.237-4.709-.616-2.104-.383-4.3-.96-5.573-1.792l-.613-.4.061.728c.303 3.61-1.431 6.226-4.347 7.94-2.935 1.723-7.06 2.521-11.445 2.426-4.381-.095-8.983-1.08-12.855-2.88-3.877-1.804-6.984-4.406-8.439-7.714l-.292-.666-.349.637c-3.101 5.666-9.042 7.265-14.58 5.889-5.548-1.378-10.616-5.728-11.907-11.87-.91-4.335-.3-9.938 1.911-14.068 1.102-2.06 2.593-3.734 4.468-4.712 1.869-.974 4.153-1.276 6.883-.541l.991.267-.612-.825c-3.449-4.642-3.198-10.542-.576-15.736 2.622-5.196 7.592-9.624 13.468-11.272 4.858-1.361 10.577-1.108 15.187.65 4.612 1.757 8.041 4.984 8.496 9.53l.092.92.551-.741c3.216-4.333 9.213-6.293 15.153-4.265l.115-.338-.115.338c5.188 1.772 7.719 6.954 5.709 11.134z"/>
        <path fill="#E4F4FF" stroke="#D6F3FF" d="M63.06 138.588c-.028-.25-.056-.498-.082-.744.126.413.253.837.38 1.266.436 1.489.85 3.023 1.113 4.286.131.632.222 1.186.262 1.626.041.468.014.725-.023.822-.085.223-.159.369-.215.462-.044-.071-.099-.17-.16-.305-.118-.257-.237-.583-.36-.953-.108-.321-.258-1.205-.425-2.418-.163-1.189-.334-2.637-.49-4.042zM261.059 99.588l-.081-.744c.126.413.253.837.379 1.266.437 1.489.851 3.023 1.113 4.286.132.632.223 1.186.263 1.626.041.468.015.725-.023.822-.085.223-.159.369-.215.462-.044-.071-.099-.17-.161-.305-.117-.257-.236-.583-.36-.953-.107-.321-.257-1.205-.424-2.418-.163-1.189-.334-2.637-.491-4.042zM326.059 88.588l-.081-.744c.126.413.253.837.379 1.266.437 1.49.851 3.023 1.113 4.286.132.632.223 1.186.263 1.626.041.468.015.725-.023.822-.085.223-.159.369-.215.462-.044-.07-.099-.17-.161-.305-.117-.257-.236-.583-.36-.953-.107-.32-.257-1.204-.424-2.418-.163-1.189-.334-2.637-.491-4.042zM505.059 133.588l-.081-.744c.126.413.253.837.379 1.266.437 1.489.851 3.023 1.113 4.286.132.632.223 1.186.263 1.626.041.468.015.725-.023.822-.085.223-.159.369-.215.462-.044-.071-.099-.17-.161-.305-.117-.257-.236-.583-.36-.953-.107-.321-.257-1.205-.424-2.418-.163-1.189-.334-2.637-.491-4.042zM74.06 166.588c-.028-.25-.056-.498-.082-.744.126.413.253.837.38 1.266.436 1.489.85 3.023 1.112 4.286.132.632.223 1.186.263 1.626.041.468.014.725-.023.822-.085.223-.159.369-.215.462-.044-.071-.099-.17-.16-.305-.118-.257-.237-.583-.36-.953-.108-.321-.258-1.205-.425-2.418-.163-1.189-.334-2.637-.49-4.042zM272.059 127.588l-.081-.744c.126.413.253.837.379 1.266.437 1.489.851 3.023 1.113 4.286.132.632.223 1.186.263 1.626.041.468.015.725-.023.822-.085.223-.159.369-.215.462-.044-.071-.099-.17-.161-.305-.117-.257-.236-.583-.36-.953-.107-.321-.257-1.205-.424-2.418-.163-1.189-.334-2.637-.491-4.042zM337.059 116.588l-.081-.744c.126.413.253.837.379 1.266.437 1.489.851 3.023 1.113 4.286.132.632.223 1.186.263 1.626.041.468.015.725-.023.822-.085.223-.159.369-.215.462-.044-.071-.099-.17-.161-.305-.117-.257-.236-.583-.36-.953-.107-.321-.257-1.205-.424-2.418-.163-1.189-.334-2.637-.491-4.042zM508.059 157.588l-.081-.744c.126.413.253.837.379 1.266.437 1.489.851 3.023 1.113 4.286.132.632.223 1.186.263 1.626.041.468.015.725-.023.822-.085.223-.159.369-.215.462-.044-.071-.099-.17-.161-.305-.117-.257-.236-.583-.36-.953-.107-.321-.257-1.205-.424-2.418-.163-1.189-.334-2.637-.491-4.042zM317.059 95.588l-.081-.744c.126.413.253.837.379 1.266.437 1.49.851 3.023 1.113 4.286.132.632.223 1.186.263 1.626.041.468.015.725-.023.822-.085.223-.159.369-.215.462-.044-.071-.099-.17-.161-.305-.117-.257-.236-.583-.36-.953-.107-.321-.257-1.205-.424-2.418-.163-1.189-.334-2.637-.491-4.042zM496.059 140.588l-.081-.744c.126.413.253.837.379 1.266.437 1.489.851 3.023 1.113 4.286.132.632.223 1.186.263 1.626.041.468.015.725-.023.822-.085.223-.159.369-.215.462-.044-.071-.099-.17-.161-.305-.117-.257-.236-.583-.36-.953-.107-.321-.257-1.205-.424-2.418-.163-1.189-.334-2.637-.491-4.042zM294.059 98.588l-.081-.744c.126.413.253.837.379 1.266.437 1.489.851 3.023 1.113 4.286.132.632.223 1.186.263 1.626.041.468.015.725-.023.822-.085.223-.159.369-.215.462-.044-.071-.099-.17-.161-.305-.117-.257-.236-.583-.36-.953-.107-.321-.257-1.205-.424-2.418-.163-1.189-.334-2.637-.491-4.042zM309.059 102.588l-.081-.744c.126.413.253.837.379 1.266.437 1.489.851 3.023 1.113 4.286.132.632.223 1.186.263 1.626.041.468.015.725-.023.822-.085.223-.159.369-.215.462-.044-.071-.099-.17-.161-.305-.117-.257-.236-.583-.36-.953-.107-.321-.257-1.205-.424-2.418-.163-1.189-.334-2.637-.491-4.042zM300.059 116.588l-.081-.744c.126.413.253.837.379 1.266.437 1.489.851 3.023 1.113 4.286.132.632.223 1.186.263 1.626.041.468.015.725-.023.822-.085.223-.159.369-.215.462-.044-.071-.099-.17-.161-.305-.117-.257-.236-.583-.36-.953-.107-.321-.257-1.205-.424-2.418-.163-1.189-.334-2.637-.491-4.042zM320.059 120.588l-.081-.744c.126.413.253.837.379 1.266.437 1.489.851 3.023 1.113 4.286.132.632.223 1.186.263 1.626.041.468.015.725-.023.822-.085.223-.159.369-.215.462-.044-.071-.099-.17-.161-.305-.117-.257-.236-.583-.36-.953-.107-.321-.257-1.205-.424-2.418-.163-1.189-.334-2.637-.491-4.042zM499.059 165.588l-.081-.744c.126.413.253.837.379 1.266.437 1.489.851 3.023 1.113 4.286.132.632.223 1.186.263 1.626.041.468.015.725-.023.822-.085.223-.159.369-.215.462-.044-.071-.099-.17-.161-.305-.117-.257-.236-.583-.36-.953-.107-.321-.257-1.205-.424-2.418-.163-1.189-.334-2.637-.491-4.042zM75.06 145.588c-.028-.25-.056-.498-.082-.744.126.413.253.837.38 1.266.436 1.489.85 3.023 1.112 4.286.132.632.223 1.186.263 1.626.041.468.014.725-.023.822-.085.223-.159.369-.215.462-.044-.071-.099-.17-.16-.305-.118-.257-.237-.583-.36-.953-.108-.321-.258-1.205-.425-2.418-.163-1.189-.334-2.637-.49-4.042zM273.059 106.588l-.081-.744c.126.413.253.837.379 1.266.437 1.489.851 3.023 1.113 4.286.132.632.223 1.186.263 1.626.041.468.015.725-.023.822-.085.223-.159.369-.215.462-.044-.071-.099-.17-.161-.305-.117-.257-.236-.583-.36-.953-.107-.321-.257-1.205-.424-2.418-.163-1.189-.334-2.637-.491-4.042zM338.059 95.588l-.081-.744c.126.413.253.837.379 1.266.437 1.49.851 3.023 1.113 4.286.132.632.223 1.186.263 1.626.041.468.015.725-.023.822-.085.223-.159.369-.215.462-.044-.071-.099-.17-.161-.305-.117-.257-.236-.583-.36-.953-.107-.321-.257-1.205-.424-2.418-.163-1.189-.334-2.637-.491-4.042zM517.059 140.588l-.081-.744c.126.413.253.837.379 1.266.437 1.489.851 3.023 1.113 4.286.132.632.223 1.186.263 1.626.041.468.015.725-.023.822-.085.223-.159.369-.215.462-.044-.071-.099-.17-.161-.305-.117-.257-.236-.583-.36-.953-.107-.321-.257-1.205-.424-2.418-.163-1.189-.334-2.637-.491-4.042zM86.06 162.588c-.028-.25-.056-.498-.082-.744.126.413.253.837.38 1.266.436 1.489.85 3.023 1.112 4.286.132.632.223 1.186.263 1.626.041.468.014.725-.023.822-.085.223-.159.369-.215.462-.044-.071-.099-.17-.16-.305-.118-.257-.237-.583-.36-.953-.108-.321-.258-1.205-.425-2.418-.163-1.189-.334-2.637-.49-4.042zM284.059 123.588l-.081-.744c.126.413.253.837.379 1.266.437 1.489.851 3.023 1.113 4.286.132.632.223 1.186.263 1.626.041.468.015.725-.023.822-.085.223-.159.369-.215.462-.044-.071-.099-.17-.161-.305-.117-.257-.236-.583-.36-.953-.107-.321-.257-1.205-.424-2.418-.163-1.189-.334-2.637-.491-4.042zM349.059 112.588l-.081-.744c.126.413.253.837.379 1.266.437 1.489.851 3.023 1.113 4.286.132.632.223 1.186.263 1.626.041.468.015.725-.023.822-.085.223-.159.369-.215.462-.044-.071-.099-.17-.161-.305-.117-.257-.236-.583-.36-.953-.107-.321-.257-1.205-.424-2.418-.163-1.189-.334-2.637-.491-4.042zM528.059 157.588l-.081-.744c.126.413.253.837.379 1.266.437 1.489.851 3.023 1.113 4.286.132.632.223 1.186.263 1.626.041.468.015.725-.023.822-.085.223-.159.369-.215.462-.044-.071-.099-.17-.161-.305-.117-.257-.236-.583-.36-.953-.107-.321-.257-1.205-.424-2.418-.163-1.189-.334-2.637-.491-4.042zM95.06 173.588c-.028-.25-.056-.498-.082-.744.126.413.253.837.38 1.266.436 1.489.85 3.023 1.112 4.286.132.632.223 1.186.263 1.626.041.468.014.725-.023.822-.085.223-.159.369-.215.462-.044-.071-.099-.17-.16-.305-.118-.257-.237-.583-.36-.953-.108-.321-.258-1.205-.425-2.418-.163-1.189-.334-2.637-.49-4.042zM103.059 162.588l-.081-.744c.126.413.253.837.379 1.266.437 1.489.851 3.023 1.113 4.286.132.632.223 1.186.263 1.626.041.468.015.725-.023.822-.085.223-.159.369-.215.462-.044-.071-.099-.17-.161-.305-.117-.257-.236-.583-.36-.953-.107-.321-.257-1.205-.424-2.418-.163-1.189-.334-2.637-.491-4.042zM120.059 166.588l-.081-.744c.126.413.253.837.379 1.266.437 1.489.851 3.023 1.113 4.286.132.632.223 1.186.263 1.626.041.468.015.725-.023.822-.085.223-.159.369-.215.462-.044-.071-.099-.17-.161-.305-.117-.257-.236-.583-.36-.953-.107-.321-.257-1.205-.424-2.418-.163-1.189-.334-2.637-.491-4.042zM85.06 138.588c-.028-.25-.056-.498-.082-.744.126.413.253.837.38 1.266.436 1.489.85 3.023 1.112 4.286.132.632.223 1.186.263 1.626.041.468.014.725-.023.822-.085.223-.159.369-.215.462-.044-.071-.099-.17-.16-.305-.118-.257-.237-.583-.36-.953-.108-.321-.258-1.205-.425-2.418-.163-1.189-.334-2.637-.49-4.042zM283.059 99.588l-.081-.744c.126.413.253.837.379 1.266.437 1.489.851 3.023 1.113 4.286.132.632.223 1.186.263 1.626.041.468.015.725-.023.822-.085.223-.159.369-.215.462-.044-.071-.099-.17-.161-.305-.117-.257-.236-.583-.36-.953-.107-.321-.257-1.205-.424-2.418-.163-1.189-.334-2.637-.491-4.042zM348.059 88.588l-.081-.744c.126.413.253.837.379 1.266.437 1.49.851 3.023 1.113 4.286.132.632.223 1.186.263 1.626.041.468.015.725-.023.822-.085.223-.159.369-.215.462-.044-.07-.099-.17-.161-.305-.117-.257-.236-.583-.36-.953-.107-.32-.257-1.204-.424-2.418-.163-1.189-.334-2.637-.491-4.042zM527.059 133.588l-.081-.744c.126.413.253.837.379 1.266.437 1.489.851 3.023 1.113 4.286.132.632.223 1.186.263 1.626.041.468.015.725-.023.822-.085.223-.159.369-.215.462-.044-.071-.099-.17-.161-.305-.117-.257-.236-.583-.36-.953-.107-.321-.257-1.205-.424-2.418-.163-1.189-.334-2.637-.491-4.042zM96.06 141.588c-.028-.25-.056-.498-.082-.744.126.413.253.837.38 1.266.436 1.489.85 3.023 1.112 4.286.132.632.223 1.186.263 1.626.041.468.014.725-.023.822-.085.223-.159.369-.215.462-.044-.071-.099-.17-.16-.305-.118-.257-.237-.583-.36-.953-.108-.321-.258-1.205-.425-2.418-.163-1.189-.334-2.637-.49-4.042zM108.059 138.588l-.081-.744c.126.413.253.837.379 1.266.437 1.489.851 3.023 1.113 4.286.132.632.223 1.186.263 1.626.041.468.015.725-.023.822-.085.223-.159.369-.215.462-.044-.071-.099-.17-.161-.305-.117-.257-.236-.583-.36-.953-.107-.321-.257-1.205-.424-2.418-.163-1.189-.334-2.637-.491-4.042zM120.059 145.588l-.081-.744c.126.413.253.837.379 1.266.437 1.489.851 3.023 1.113 4.286.132.632.223 1.186.263 1.626.041.468.015.725-.023.822-.085.223-.159.369-.215.462-.044-.071-.099-.17-.161-.305-.117-.257-.236-.583-.36-.953-.107-.321-.257-1.205-.424-2.418-.163-1.189-.334-2.637-.491-4.042z"/>
        <path fill="#EFEFEF" stroke="#695353" d="M540.908 63.214l-.517 1.075 1.13-.385c6.358-2.164 12.553.952 16.514 6.038 3.969 5.097 5.556 11.999 2.867 17.2l.444.23-.444-.23c-3.172 6.135-9.377 9.424-16.931 8.78-.598-.051-2.258-.204-4.051-.53-1.818-.33-3.681-.824-4.745-1.52l-.857-.56.086 1.019c.254 3.033-1.195 5.23-3.664 6.68-2.495 1.466-6.02 2.152-9.789 2.071-3.761-.082-7.712-.928-11.031-2.472-3.326-1.546-5.965-3.768-7.197-6.569l-.41-.93-.487.89c-2.629 4.803-7.664 6.169-12.386 4.995-4.734-1.176-9.049-4.886-10.147-10.11-.778-3.706-.255-8.501 1.632-12.027.941-1.756 2.204-3.17 3.782-3.992 1.569-.818 3.492-1.076 5.809-.453l1.387.373-.857-1.154c-2.924-3.936-2.723-8.953-.48-13.397 2.244-4.446 6.498-8.234 11.52-9.642 4.158-1.166 9.058-.948 13.003.555 3.947 1.505 6.836 4.247 7.219 8.076l.128 1.288.771-1.038c2.727-3.674 7.821-5.346 12.879-3.619h0c4.402 1.504 6.498 5.873 4.822 9.358z"/>
    </g>
    <defs>
        <clipPath id="clip0">
            <path fill="#fff" d="M0 0H609V362H0z"/>
        </clipPath>
    </defs>
</svg>
